<svg xmlns="http://www.w3.org/2000/svg" width="242" height="242" viewBox="0 0 64 64"><defs><filter id="A" x="-.246" width="1.491" y="-.215" height="1.43" color-interpolation-filters="sRGB"><feGaussianBlur stdDeviation="3.84"/></filter></defs><path d="M16.103 52.908l2.34 4.944c.2.334 4.677-5.078 4.677-5.078l10.023.668-2.405-7.216 2.94-3.207-1.336-7.216 2.673-5.746-4.544-5.01 7.35 1.336 5.613-2.405 1.47 5.613-2.54 2.138 2.205 3.54-8.887 1.002.2 3.074-1.938 3.942 1.604 3.608.067 4.878 5.01-2.272 5.145 2.806 1.27-5.078 6.615-.134-1.737-4.343 6.214-5.212-6.75-1.27 2.138-8.085-2.005-6.28 2.54-8.887-3.074-4.944-7.617 3.54-6.08-2.54-5.078 3.007-9.02-1.67-1.002 6.548 2.205 4.2-4.076 4.944 3.608 3.34-2.472 5.28 2.205 3.54-4.143-1.403-3.675 3.14-4.01.468v6.214l1.737 3.074-1.403 3.34z" fill="red"/><path d="M17.502 282.06l.756 7.654 5.67-7.654 7.276 4.63-4.158-7.465 4.63-2.173-4.063-4.536 5.575-6.048-3.78-3.213-2.362-4.63 10.772.756 9.07-3.307-.66 6.615-1.606 4.63 2.362 4.44-3.97 12.662 4.44-4.347 4.725.85-2.74-6.52 5.575-.19-6.237-1.7 2.93-8.504-2.646-4.252 2.74-9.638-2.835-1.228-11.245-2.08-4.158 4.536-8.882-3.59 1.7 7.56-3.213 5.86 3.685 3.78-3.024 4.63 1.74 4.932z" opacity=".315" filter="url(#A)" transform="translate(0 -233)"/><path d="M25.457 39.545C14.425 37.66 12.11 46.57 15.1 49.902c3.27 3.642 13.898.906 13.965-4.677l.267-22.45L46.775 21.1l.095 15.686c.49-1.357-14.193-.073-11.605 8.255 2.437 7.84 14.698.406 14.995-2.842l.362-30.082-25.025 3.658z" fill="#a00"/></svg>